<?xml version="1.0" standalone="no"?>
<!DOCTYPE svg PUBLIC "-//W3C//DTD SVG 20010904//EN"
 "http://www.w3.org/TR/2001/REC-SVG-20010904/DTD/svg10.dtd">
<svg version="1.0" xmlns="http://www.w3.org/2000/svg"
 width="406.000000pt" height="261.000000pt" viewBox="0 0 406.000000 261.000000"
 preserveAspectRatio="xMidYMid meet">
<metadata>
Created by potrace 1.16, written by Peter Selinger 2001-2019
</metadata>
<g transform="translate(0.000000,261.000000) scale(0.100000,-0.100000)"
fill="#000000" stroke="none">
<path d="M4000 2580 c0 -7 -672 -11 -1982 -12 l-1983 -3 -3 -1273 -2 -1272
1995 0 1995 0 0 1285 c0 850 -3 1285 -10 1285 -5 0 -10 -4 -10 -10z m-1746
-255 c273 -48 512 -196 683 -425 56 -75 143 -252 143 -291 0 -5 -13 -9 -29 -9
-25 0 -31 5 -42 38 -75 234 -311 480 -559 584 -148 62 -254 82 -420 82 -124 0
-159 -4 -245 -27 -55 -14 -125 -36 -155 -49 -224 -94 -407 -260 -523 -474 -26
-49 -45 -79 -42 -66 4 12 27 59 52 104 155 281 426 475 741 532 104 19 290 19
396 1z m-1453 -827 c131 -39 197 -199 134 -324 -31 -61 -31 -64 0 -64 21 0 25
-5 25 -30 l0 -30 -140 0 c-152 0 -181 7 -238 55 -81 68 -103 196 -49 287 56
96 163 138 268 106z m319 -148 c0 -179 7 -208 60 -230 24 -10 36 -10 60 0 53
22 60 51 60 230 l0 160 30 0 30 0 0 -177 c0 -160 -2 -181 -20 -211 -59 -97
-192 -96 -264 1 -19 26 -21 45 -25 193 -1 90 0 171 3 179 3 9 18 15 36 15 l30
0 0 -160z m1010 150 c48 -13 106 -63 132 -113 34 -65 32 -167 -5 -230 -15 -26
-47 -60 -69 -75 -38 -25 -51 -27 -160 -30 l-118 -4 0 231 0 231 93 0 c50 0
108 -4 127 -10z m520 -25 l0 -35 -95 0 -95 0 0 -75 0 -75 73 0 c86 0 102 -8
93 -44 -6 -25 -9 -26 -86 -26 l-79 0 -3 -82 -3 -83 -35 0 -35 0 -3 215 c-1
118 0 220 2 227 4 10 39 13 136 13 l130 0 0 -35z m170 -160 l0 -195 79 0 c99
0 111 -5 111 -41 0 -37 -15 -41 -150 -37 l-105 3 -3 220 c-1 121 0 225 2 232
3 7 19 13 36 13 l30 0 0 -195z m315 143 c13 -29 34 -79 47 -111 13 -33 27 -59
32 -59 5 0 30 50 55 111 44 110 45 111 78 111 22 0 33 -5 33 -14 0 -12 -41
-106 -103 -236 -15 -31 -23 -72 -27 -130 l-5 -85 -32 -3 -33 -3 0 80 c0 79 -2
84 -70 231 -38 82 -70 152 -70 155 0 3 16 5 36 5 33 0 37 -3 59 -52z m-1416
-184 l89 -219 -31 -3 c-20 -2 -35 2 -43 12 -16 23 -212 23 -220 1 -6 -14 -74
-23 -74 -10 0 6 129 328 159 399 12 27 24 47 26 44 3 -2 45 -103 94 -224z
m1341 -313 c0 -19 -54 -129 -95 -192 -52 -80 -167 -204 -247 -265 -319 -246
-784 -287 -1153 -101 -138 69 -294 201 -380 322 -45 63 -125 211 -125 229 0 6
22 -28 48 -76 147 -273 362 -443 661 -525 85 -23 115 -27 261 -27 141 0 177 3
249 22 214 59 360 142 508 291 72 72 159 199 193 279 20 45 26 52 51 52 16 0
29 -4 29 -9z"/>
<path d="M665 1426 c-85 -38 -117 -134 -74 -222 51 -107 200 -118 272 -22 31
41 34 124 8 176 -36 71 -130 102 -206 68z"/>
<path d="M1980 1279 l0 -171 70 4 c82 4 114 23 148 89 18 35 22 54 18 92 -11
98 -80 157 -184 157 l-52 0 0 -171z"/>
</g>
</svg>
